<svg width="112" height="108" viewBox="0 0 112 108" fill="none" xmlns="http://www.w3.org/2000/svg">
<path d="M9.28271 28.0821C9.28271 22.6287 13.7102 18.2077 19.1716 18.2077H88.3936C93.8545 18.2077 98.282 22.6287 98.282 28.0821V89.797C98.282 92.5237 96.0695 94.7339 93.3378 94.7339H14.2274C11.4967 94.7339 9.28271 92.5237 9.28271 89.797V28.0821Z" fill="url(#paint0_linear_175_158)"/>
<path d="M0.928777 39.1806C0.19128 33.2873 4.7935 28.0818 10.7415 28.0818H37.2839C38.453 28.0818 39.585 28.4958 40.4777 29.2497L53.7822 40.491C54.6749 41.2449 55.8069 41.6589 56.9765 41.6589H96.8234C102.873 41.6589 107.503 47.0343 106.601 53.0072L100.015 96.576C99.1025 102.613 93.9059 107.077 87.7922 107.077H20.3405C14.1066 107.077 8.84798 102.441 8.07494 96.265L0.928777 39.1806Z" fill="url(#paint1_linear_175_158)"/>
<path d="M53.6921 97.0769C66.862 97.0769 77.5383 86.5728 77.5383 73.6154C77.5383 60.6579 66.862 50.1538 53.6921 50.1538C40.5222 50.1538 29.8459 60.6579 29.8459 73.6154C29.8459 86.5728 40.5222 97.0769 53.6921 97.0769Z" fill="url(#paint2_linear_175_158)"/>
<path fill-rule="evenodd" clip-rule="evenodd" d="M53.7817 83.388C54.7929 83.388 55.6135 84.2074 55.6135 85.2167C55.6135 86.2264 54.7929 87.0457 53.7817 87.0457C52.7709 87.0457 51.9504 86.2264 51.9504 85.2167C51.9504 84.2074 52.7709 83.388 53.7817 83.388ZM53.7817 63.7276C50.8531 63.7276 48.658 65.9202 48.658 68.4121C48.658 69.2597 47.9695 69.9472 47.1207 69.9472C46.2719 69.9472 45.5834 69.2597 45.5834 68.4121C45.5834 64.0338 49.3528 60.6575 53.7817 60.6575C58.2107 60.6575 61.9801 64.0338 61.9801 68.4121C61.9801 72.2414 59.8769 74.3662 58.1198 75.8884C57.887 76.0898 57.6696 76.2742 57.4658 76.4468C56.8609 76.9593 56.3783 77.3678 55.9811 77.8225C55.5065 78.366 55.319 78.8023 55.319 79.2963V79.565C55.319 80.4125 54.6309 81.1 53.7817 81.1C52.9329 81.1 52.2448 80.4125 52.2448 79.565V79.2963C52.2448 77.8166 52.8897 76.6911 53.6643 75.8045C54.2291 75.1581 54.9574 74.5426 55.603 73.997C55.7779 73.8492 55.9469 73.7062 56.1051 73.5694C57.6786 72.2063 58.9058 70.8622 58.9058 68.4121C58.9058 65.9202 56.7107 63.7276 53.7817 63.7276Z" fill="#F4F7FE"/>
<path fill-rule="evenodd" clip-rule="evenodd" d="M98.512 14.218L105.566 2.83025C105.929 2.24381 105.747 1.47291 105.159 1.10994C104.572 0.746984 103.8 0.928967 103.437 1.5154L96.3826 12.9032C96.0196 13.4901 96.2014 14.261 96.7886 14.6235C97.3764 14.9865 98.1485 14.805 98.512 14.218Z" fill="#7D94DD"/>
<path fill-rule="evenodd" clip-rule="evenodd" d="M102.584 19.2452L111.363 13.3743C111.938 12.9908 112.091 12.2134 111.707 11.6405C111.323 11.0676 110.545 10.9136 109.971 11.2975L101.191 17.1684C100.617 17.5519 100.463 18.3288 100.847 18.9022C101.232 19.4752 102.01 19.6291 102.584 19.2452Z" fill="#7D94DD"/>
<path fill-rule="evenodd" clip-rule="evenodd" d="M92.4754 12.3357V5.49099C92.4754 4.80107 91.9147 4.24113 91.2237 4.24113C90.5328 4.24113 89.972 4.80107 89.972 5.49099V12.3357C89.972 13.0257 90.5328 13.5856 91.2237 13.5856C91.9147 13.5856 92.4754 13.0257 92.4754 12.3357Z" fill="#7D94DD"/>
<defs>
<linearGradient id="paint0_linear_175_158" x1="72.4396" y1="18.2077" x2="72.4396" y2="58.3012" gradientUnits="userSpaceOnUse">
<stop stop-color="#C7D3FE"/>
<stop offset="1" stop-color="#98ACF0"/>
</linearGradient>
<linearGradient id="paint1_linear_175_158" x1="32.1998" y1="28.0818" x2="32.1998" y2="107.077" gradientUnits="userSpaceOnUse">
<stop stop-color="#E3E9FE"/>
<stop offset="1" stop-color="#B1C2FC"/>
</linearGradient>
<linearGradient id="paint2_linear_175_158" x1="41.863" y1="46.8964" x2="62.6845" y2="101.744" gradientUnits="userSpaceOnUse">
<stop stop-color="#C7D3FE"/>
<stop offset="1" stop-color="#98ACF0"/>
</linearGradient>
</defs>
</svg>
