<svg width="73" height="44" viewBox="0 0 73 44" fill="none" xmlns="http://www.w3.org/2000/svg">
<path d="M51.5178 20.9723V15.9205C51.57 15.6083 51.57 15.3479 51.4656 15.0352C51.2573 14.5144 50.7886 14.15 50.2156 14.0456L35.1643 11.3377L33.446 13.3165L48.6012 16.077L32.4564 35.1906C32.4042 35.2427 32.2999 35.2427 32.2481 35.2949L2.97865 30.1387L19.1756 11.0773C19.2278 11.0251 19.3321 11.0251 19.3839 10.9729L26.2067 12.1708L27.9254 10.1399L19.6965 8.73376C18.863 8.57723 17.9777 8.94203 17.4569 9.56683L0.426424 29.6178C0.114239 30.0348 -0.0422857 30.5035 0.00988879 30.92V35.7636C0.00988879 36.7528 0.739035 37.5863 1.72863 37.7424L32.2481 43.0547C32.3521 43.0547 32.5081 43.1069 32.6125 43.1069C33.3416 43.1069 34.123 42.7942 34.4873 42.2216L50.7365 23.0559C51.2052 22.535 51.5178 21.6497 51.5178 20.9723Z" fill="#0057FF"/>
<path d="M72.7667 6.54621V6.44186C72.7667 6.38969 72.7667 6.33794 72.7145 6.28577C72.5062 5.76488 72.0375 5.4001 71.4649 5.29618L40.9976 0.036041C40.1641 -0.120051 39.2788 0.244311 38.7579 0.869111L21.7275 20.8683C21.3631 21.2849 21.2588 21.8058 21.3631 22.2745V26.9615C21.3631 27.9511 22.0923 28.7846 23.0819 28.9407L33.7582 30.7634H33.8104L39.4871 24.0971L24.1754 21.441L40.4245 2.27566C40.4767 2.22349 40.581 2.22349 40.6332 2.17131L69.9022 7.32711L53.7053 26.3889C53.6531 26.4411 53.5492 26.4411 53.497 26.4928L50.9448 26.0241L50.4761 25.9202L44.6433 32.6904L53.497 34.1487C53.6009 34.1487 53.7575 34.2009 53.8614 34.2009C54.5905 34.2009 55.3719 33.8882 55.7362 33.3156L71.9336 14.1499C72.4023 13.629 72.7145 12.7438 72.7145 12.1185V7.06666C72.8188 6.91057 72.8188 6.75448 72.7667 6.54621Z" fill="#0057FF"/>
</svg>
