<svg width="113" height="23" viewBox="0 0 113 23" fill="none" xmlns="http://www.w3.org/2000/svg">
<path d="M21.1815 0.76445L13.4739 15.2431V22.0655H7.95333V15.3992L0.140961 0.76445H5.66153L10.7134 9.87862L15.6609 0.76445H21.1815Z" fill="#394C66"/>
<path d="M61.9608 22.0655L58.8881 16.1805H54.7737V22.0655H49.2531V0.76445H58.7838C61.596 0.76445 63.7835 1.44144 65.3461 2.69147C66.9083 3.99368 67.6375 5.81632 67.6375 8.15986C67.6375 9.77426 67.3253 11.1286 66.6479 12.3265C65.9709 13.5244 65.0335 14.3574 63.8356 15.0344L68.2627 22.0133H61.9608V22.0655ZM54.7215 11.7534H58.7838C59.9294 11.7534 60.7629 11.4408 61.3877 10.8682C62.013 10.2951 62.3252 9.46207 62.3252 8.42031C62.3252 7.37854 62.013 6.59765 61.3877 6.07677C60.7629 5.50371 59.8777 5.24328 58.7838 5.24328H54.7215V11.7534Z" fill="#394C66"/>
<path d="M71.3876 0.76445H89.6676V5.39979H83.314V22.1176H77.7934V5.39979H71.4915L71.3876 0.76445Z" fill="#394C66"/>
<path d="M100.448 16.4927C101.23 17.3262 102.219 17.7427 103.469 17.7427C104.667 17.7427 105.605 17.3262 106.385 16.5449C107.115 15.7118 107.532 14.67 107.532 13.3161V0.76445H113V13.2639C113 15.0866 112.583 16.701 111.802 18.1075C111.021 19.5136 109.927 20.555 108.469 21.2841C107.011 22.0655 105.344 22.4303 103.365 22.4303C101.386 22.4303 99.7192 22.0655 98.2092 21.2841C96.6987 20.5032 95.6048 19.5136 94.8239 18.1075C93.9904 16.701 93.626 15.1387 93.626 13.2639V0.76445H99.1466V13.2639C99.2505 14.6179 99.6153 15.7118 100.448 16.4927Z" fill="#394C66"/>
<path d="M36.181 0.76445H30.5039L21.338 22.0655H27.0669L28.5769 18.3158L30.1917 14.0452L33.1601 6.44113L36.0766 14.0452L37.7432 18.3158L39.1493 22.0655H45.1386L36.181 0.76445Z" fill="#394C66"/>
</svg>
